<svg version="1.1" id="Layer_1" xmlns="http://www.w3.org/2000/svg" xmlns:xlink="http://www.w3.org/1999/xlink" x="0px" y="0px"
	 width="100%" viewBox="0 0 848 672" enable-background="new 0 0 848 672" xml:space="preserve">
<path fill="#000000" opacity="1.000000" stroke="none" 
	d="
M362.104858,315.136658  
	C363.315613,274.879486 375.949860,237.636566 387.996216,200.308670 
	C395.980560,175.567795 405.169708,151.267426 418.477570,128.761841 
	C419.050507,127.792946 419.518433,126.635201 421.702728,126.241661 
	C422.242920,131.611313 422.774078,136.940918 423.316010,142.269424 
	C425.309998,161.875946 429.576355,180.869995 441.896362,196.779846 
	C452.027130,209.862534 464.812988,220.438919 477.364380,231.161346 
	C493.464752,244.915634 511.399200,256.287018 527.455383,270.114655 
	C550.787964,290.208771 562.834656,316.268982 568.339478,345.885956 
	C573.143188,371.731171 569.556213,396.211395 556.047058,419.007324 
	C547.420227,433.564667 535.664001,445.276886 522.555908,455.724030 
	C512.648193,463.620361 502.135315,470.687714 491.624908,477.747803 
	C490.684082,478.379822 489.804016,479.260651 487.566772,478.915741 
	C488.824219,473.384064 491.360870,468.462280 493.840179,463.553589 
	C500.139221,451.082489 507.067047,438.885162 509.451141,424.827209 
	C514.440125,395.409454 510.334747,367.174652 498.307312,340.027740 
	C490.070557,321.436646 478.098053,305.194305 465.469147,289.452057 
	C455.127380,276.560730 445.404694,263.283966 437.321899,248.844040 
	C436.349060,247.106079 435.175171,245.476944 434.032623,243.840576 
	C433.774841,243.471420 433.257965,243.283218 432.862152,243.012939 
	C430.977570,244.052307 432.134735,245.397079 432.447144,246.522919 
	C435.648956,258.061920 441.532349,268.289398 448.050903,278.199829 
	C458.578613,294.205444 469.306061,310.096466 477.820984,327.314545 
	C489.357025,350.641693 497.637726,374.916687 498.283356,401.241455 
	C498.803528,422.450775 493.259186,442.089905 482.065552,460.084625 
	C462.884155,490.920410 443.613373,521.700684 424.366821,552.495850 
	C423.592896,553.734192 423.015533,555.205139 420.570770,555.916199 
	C417.338165,539.355347 416.248962,522.575562 413.459381,505.367676 
	C408.102173,507.110840 403.722748,509.878967 398.782227,511.126038 
	C382.203979,515.310669 366.446228,511.960388 350.952911,506.116058 
	C328.519257,497.653687 313.607910,480.564606 300.303741,461.689270 
	C296.893616,456.851166 293.711548,451.852295 289.626587,445.731323 
	C297.561279,446.152985 304.150726,446.052216 310.604401,446.939270 
	C324.339874,448.827148 337.381409,446.594299 350.262207,441.909882 
	C362.494293,437.461365 375.090881,435.678650 387.990112,438.659424 
	C406.247192,442.878296 415.970886,455.592041 421.125061,472.590576 
	C422.797119,478.105042 423.992981,483.774109 423.741394,489.920013 
	C415.050537,479.657501 408.482422,467.109253 394.858246,462.429626 
	C381.799744,457.944244 368.439056,458.330444 355.068939,461.516022 
	C362.679871,462.953735 370.415283,463.522552 378.072510,464.414368 
	C394.960175,466.381226 406.498322,475.676605 415.031128,489.545227 
	C418.518127,495.212708 421.610596,501.122498 424.904175,506.909760 
	C425.702332,508.312225 426.586060,509.665955 427.922211,511.843536 
	C437.167297,498.593872 445.965149,485.985199 454.618042,473.584259 
	C452.893250,470.829315 450.739960,469.841614 448.778259,468.635712 
	C408.798706,444.059418 381.365265,409.814453 368.308746,364.432983 
	C363.713257,348.460144 362.640381,332.065826 362.104858,315.136658 
z"/>
</svg>