<svg xmlns="http://www.w3.org/2000/svg" xmlns:xlink="http://www.w3.org/1999/xlink" width="500" zoomAndPan="magnify" viewBox="0 0 375 374.999991" height="500" preserveAspectRatio="xMidYMid meet" version="1.0"><defs><g/></defs><g fill="#0097b2" fill-opacity="1"><g transform="translate(56.062501, 237.218052)"><g><path d="M 12.40625 0 L 62.03125 0 C 121.144531 0 141.578125 -28.703125 141.09375 -55.949219 C 140.847656 -79.789062 123.335938 -99.496094 83.683594 -101.441406 C 111.414062 -106.550781 122.117188 -121.632812 122.117188 -138.171875 C 122.117188 -157.878906 106.792969 -170.285156 69.328125 -170.285156 L 12.40625 -170.285156 L 12.40625 -167.121094 C 19.703125 -164.933594 22.136719 -159.335938 22.136719 -139.390625 L 22.136719 -30.894531 C 22.136719 -10.945312 19.703125 -5.351562 12.40625 -3.164062 Z M 42.085938 -24.8125 L 42.085938 -98.277344 L 66.898438 -98.277344 C 103.386719 -98.277344 118.957031 -77.84375 118.957031 -49.867188 C 118.957031 -22.867188 103.875 -3.648438 64.222656 -3.648438 L 54.734375 -3.648438 C 44.273438 -3.648438 42.085938 -7.296875 42.085938 -24.8125 Z M 42.085938 -101.925781 L 42.085938 -166.636719 L 60.574219 -166.636719 C 85.628906 -166.636719 99.980469 -153.984375 99.980469 -133.792969 C 99.980469 -116.035156 88.789062 -101.925781 64.707031 -101.925781 Z M 42.085938 -101.925781 "/></g></g></g><g fill="#0097b2" fill-opacity="1"><g transform="translate(177.140537, 306.753978)"><g><path d="M 12.40625 0 L 62.03125 0 C 121.144531 0 141.578125 -28.703125 141.09375 -55.949219 C 140.847656 -79.789062 123.335938 -99.496094 83.683594 -101.441406 C 111.414062 -106.550781 122.117188 -121.632812 122.117188 -138.171875 C 122.117188 -157.878906 106.792969 -170.285156 69.328125 -170.285156 L 12.40625 -170.285156 L 12.40625 -167.121094 C 19.703125 -164.933594 22.136719 -159.335938 22.136719 -139.390625 L 22.136719 -30.894531 C 22.136719 -10.945312 19.703125 -5.351562 12.40625 -3.164062 Z M 42.085938 -24.8125 L 42.085938 -98.277344 L 66.898438 -98.277344 C 103.386719 -98.277344 118.957031 -77.84375 118.957031 -49.867188 C 118.957031 -22.867188 103.875 -3.648438 64.222656 -3.648438 L 54.734375 -3.648438 C 44.273438 -3.648438 42.085938 -7.296875 42.085938 -24.8125 Z M 42.085938 -101.925781 L 42.085938 -166.636719 L 60.574219 -166.636719 C 85.628906 -166.636719 99.980469 -153.984375 99.980469 -133.792969 C 99.980469 -116.035156 88.789062 -101.925781 64.707031 -101.925781 Z M 42.085938 -101.925781 "/></g></g></g></svg>